G04 DesignSpark PCB Gerber Version 10.0 Build 5299*
G04 #@! TF.Part,Single*
G04 #@! TF.FileFunction,Drillmap*
G04 #@! TF.FilePolarity,Positive*
%FSLAX35Y35*%
%MOIN*%
%ADD16C,0.00500*%
G04 #@! TA.AperFunction,WasherPad*
%ADD22C,0.10000*%
G04 #@! TD.AperFunction*
X0Y0D02*
D02*
D16*
X25250Y21187D02*
X26813Y24937D01*
X28375Y21187D01*
X25875Y22750D02*
X27750D01*
X25250Y31187D02*
X26813Y34937D01*
X28375Y31187D01*
X25875Y32750D02*
X27750D01*
X25250Y41187D02*
X26813Y44937D01*
X28375Y41187D01*
X25875Y42750D02*
X27750D01*
X25250Y51187D02*
X26813Y54937D01*
X28375Y51187D01*
X25875Y52750D02*
X27750D01*
X25250Y61187D02*
X26813Y64937D01*
X28375Y61187D01*
X25875Y62750D02*
X27750D01*
X25250Y71187D02*
X26813Y74937D01*
X28375Y71187D01*
X25875Y72750D02*
X27750D01*
X25250Y81187D02*
X26813Y84937D01*
X28375Y81187D01*
X25875Y82750D02*
X27750D01*
X25250Y91187D02*
X26813Y94937D01*
X28375Y91187D01*
X25875Y92750D02*
X27750D01*
X25250Y101187D02*
X26813Y104937D01*
X28375Y101187D01*
X25875Y102750D02*
X27750D01*
X25250Y111187D02*
X26813Y114937D01*
X28375Y111187D01*
X25875Y112750D02*
X27750D01*
X25250Y121187D02*
X26813Y124937D01*
X28375Y121187D01*
X25875Y122750D02*
X27750D01*
X25250Y131187D02*
X26813Y134937D01*
X28375Y131187D01*
X25875Y132750D02*
X27750D01*
X25250Y141187D02*
X26813Y144937D01*
X28375Y141187D01*
X25875Y142750D02*
X27750D01*
X25250Y151187D02*
X26813Y154937D01*
X28375Y151187D01*
X25875Y152750D02*
X27750D01*
X25250Y161187D02*
X26813Y164937D01*
X28375Y161187D01*
X25875Y162750D02*
X27750D01*
X25250Y171187D02*
X26813Y174937D01*
X28375Y171187D01*
X25875Y172750D02*
X27750D01*
X25250Y181187D02*
X26813Y184937D01*
X28375Y181187D01*
X25875Y182750D02*
X27750D01*
X25250Y191187D02*
X26813Y194937D01*
X28375Y191187D01*
X25875Y192750D02*
X27750D01*
X25250Y201187D02*
X26813Y204937D01*
X28375Y201187D01*
X25875Y202750D02*
X27750D01*
X25250Y211187D02*
X26813Y214937D01*
X28375Y211187D01*
X25875Y212750D02*
X27750D01*
X25250Y221187D02*
X26813Y224937D01*
X28375Y221187D01*
X25875Y222750D02*
X27750D01*
X59937Y23063D02*
X60563Y22750D01*
X60875Y22125D01*
X60563Y21500D01*
X59937Y21187D01*
X57750D01*
Y24937D01*
X59937D01*
X60563Y24625D01*
X60875Y24000D01*
X60563Y23375D01*
X59937Y23063D01*
X57750D01*
Y41187D02*
X59313Y44937D01*
X60875Y41187D01*
X58375Y42750D02*
X60250D01*
X57750Y81187D02*
X59313Y84937D01*
X60875Y81187D01*
X58375Y82750D02*
X60250D01*
X59937Y123063D02*
X60563Y122750D01*
X60875Y122125D01*
X60563Y121500D01*
X59937Y121187D01*
X57750D01*
Y124937D01*
X59937D01*
X60563Y124625D01*
X60875Y124000D01*
X60563Y123375D01*
X59937Y123063D01*
X57750D01*
X85250Y21187D02*
X86813Y24937D01*
X88375Y21187D01*
X85875Y22750D02*
X87750D01*
X85250Y31187D02*
X86813Y34937D01*
X88375Y31187D01*
X85875Y32750D02*
X87750D01*
X85250Y41187D02*
X86813Y44937D01*
X88375Y41187D01*
X85875Y42750D02*
X87750D01*
X85250Y51187D02*
X86813Y54937D01*
X88375Y51187D01*
X85875Y52750D02*
X87750D01*
X85250Y61187D02*
X86813Y64937D01*
X88375Y61187D01*
X85875Y62750D02*
X87750D01*
X85250Y71187D02*
X86813Y74937D01*
X88375Y71187D01*
X85875Y72750D02*
X87750D01*
X85250Y81187D02*
X86813Y84937D01*
X88375Y81187D01*
X85875Y82750D02*
X87750D01*
X85250Y91187D02*
X86813Y94937D01*
X88375Y91187D01*
X85875Y92750D02*
X87750D01*
X85250Y101187D02*
X86813Y104937D01*
X88375Y101187D01*
X85875Y102750D02*
X87750D01*
X85250Y111187D02*
X86813Y114937D01*
X88375Y111187D01*
X85875Y112750D02*
X87750D01*
X85250Y121187D02*
X86813Y124937D01*
X88375Y121187D01*
X85875Y122750D02*
X87750D01*
X85250Y131187D02*
X86813Y134937D01*
X88375Y131187D01*
X85875Y132750D02*
X87750D01*
X85250Y141187D02*
X86813Y144937D01*
X88375Y141187D01*
X85875Y142750D02*
X87750D01*
X85250Y151187D02*
X86813Y154937D01*
X88375Y151187D01*
X85875Y152750D02*
X87750D01*
X85250Y161187D02*
X86813Y164937D01*
X88375Y161187D01*
X85875Y162750D02*
X87750D01*
X85250Y171187D02*
X86813Y174937D01*
X88375Y171187D01*
X85875Y172750D02*
X87750D01*
X85250Y181187D02*
X86813Y184937D01*
X88375Y181187D01*
X85875Y182750D02*
X87750D01*
X85250Y191187D02*
X86813Y194937D01*
X88375Y191187D01*
X85875Y192750D02*
X87750D01*
X85250Y201187D02*
X86813Y204937D01*
X88375Y201187D01*
X85875Y202750D02*
X87750D01*
X85250Y211187D02*
X86813Y214937D01*
X88375Y211187D01*
X85875Y212750D02*
X87750D01*
X85250Y221187D02*
X86813Y224937D01*
X88375Y221187D01*
X85875Y222750D02*
X87750D01*
X95875Y36813D02*
X95563Y36500D01*
X94937Y36187D01*
X94000D01*
X93375Y36500D01*
X93063Y36813D01*
X92750Y37437D01*
Y38687D01*
X93063Y39313D01*
X93375Y39625D01*
X94000Y39937D01*
X94937D01*
X95563Y39625D01*
X95875Y39313D01*
Y216813D02*
X95563Y216500D01*
X94937Y216187D01*
X94000D01*
X93375Y216500D01*
X93063Y216813D01*
X92750Y217437D01*
Y218687D01*
X93063Y219313D01*
X93375Y219625D01*
X94000Y219937D01*
X94937D01*
X95563Y219625D01*
X95875Y219313D01*
X98375Y84313D02*
X98063Y84000D01*
X97437Y83687D01*
X96500D01*
X95875Y84000D01*
X95563Y84313D01*
X95250Y84937D01*
Y86187D01*
X95563Y86813D01*
X95875Y87125D01*
X96500Y87437D01*
X97437D01*
X98063Y87125D01*
X98375Y86813D01*
Y201813D02*
X98063Y201500D01*
X97437Y201187D01*
X96500D01*
X95875Y201500D01*
X95563Y201813D01*
X95250Y202437D01*
Y203687D01*
X95563Y204313D01*
X95875Y204625D01*
X96500Y204937D01*
X97437D01*
X98063Y204625D01*
X98375Y204313D01*
X105875Y51813D02*
X105563Y51500D01*
X104937Y51187D01*
X104000D01*
X103375Y51500D01*
X103063Y51813D01*
X102750Y52437D01*
Y53687D01*
X103063Y54313D01*
X103375Y54625D01*
X104000Y54937D01*
X104937D01*
X105563Y54625D01*
X105875Y54313D01*
Y119313D02*
X105563Y119000D01*
X104937Y118687D01*
X104000D01*
X103375Y119000D01*
X103063Y119313D01*
X102750Y119937D01*
Y121187D01*
X103063Y121813D01*
X103375Y122125D01*
X104000Y122437D01*
X104937D01*
X105563Y122125D01*
X105875Y121813D01*
X110875Y171813D02*
X110563Y171500D01*
X109937Y171187D01*
X109000D01*
X108375Y171500D01*
X108063Y171813D01*
X107750Y172437D01*
Y173687D01*
X108063Y174313D01*
X108375Y174625D01*
X109000Y174937D01*
X109937D01*
X110563Y174625D01*
X110875Y174313D01*
Y196813D02*
X110563Y196500D01*
X109937Y196187D01*
X109000D01*
X108375Y196500D01*
X108063Y196813D01*
X107750Y197437D01*
Y198687D01*
X108063Y199313D01*
X108375Y199625D01*
X109000Y199937D01*
X109937D01*
X110563Y199625D01*
X110875Y199313D01*
X115250Y21187D02*
X116813Y24937D01*
X118375Y21187D01*
X115875Y22750D02*
X117750D01*
X115250Y31187D02*
X116813Y34937D01*
X118375Y31187D01*
X115875Y32750D02*
X117750D01*
X115250Y41187D02*
X116813Y44937D01*
X118375Y41187D01*
X115875Y42750D02*
X117750D01*
X115250Y51187D02*
X116813Y54937D01*
X118375Y51187D01*
X115875Y52750D02*
X117750D01*
X115250Y71187D02*
X116813Y74937D01*
X118375Y71187D01*
X115875Y72750D02*
X117750D01*
X117437Y90563D02*
X118063Y90250D01*
X118375Y89625D01*
X118063Y89000D01*
X117437Y88687D01*
X115250D01*
Y92437D01*
X117437D01*
X118063Y92125D01*
X118375Y91500D01*
X118063Y90875D01*
X117437Y90563D01*
X115250D01*
Y101187D02*
X116813Y104937D01*
X118375Y101187D01*
X115875Y102750D02*
X117750D01*
X115250Y121187D02*
X116813Y124937D01*
X118375Y121187D01*
X115875Y122750D02*
X117750D01*
X115250Y151187D02*
X116813Y154937D01*
X118375Y151187D01*
X115875Y152750D02*
X117750D01*
X115250Y171187D02*
X116813Y174937D01*
X118375Y171187D01*
X115875Y172750D02*
X117750D01*
X115250Y201187D02*
X116813Y204937D01*
X118375Y201187D01*
X115875Y202750D02*
X117750D01*
X115250Y221187D02*
X116813Y224937D01*
X118375Y221187D01*
X115875Y222750D02*
X117750D01*
X128375Y36813D02*
X128063Y36500D01*
X127437Y36187D01*
X126500D01*
X125875Y36500D01*
X125563Y36813D01*
X125250Y37437D01*
Y38687D01*
X125563Y39313D01*
X125875Y39625D01*
X126500Y39937D01*
X127437D01*
X128063Y39625D01*
X128375Y39313D01*
Y56813D02*
X128063Y56500D01*
X127437Y56187D01*
X126500D01*
X125875Y56500D01*
X125563Y56813D01*
X125250Y57437D01*
Y58687D01*
X125563Y59313D01*
X125875Y59625D01*
X126500Y59937D01*
X127437D01*
X128063Y59625D01*
X128375Y59313D01*
X125250Y71187D02*
X126813Y74937D01*
X128375Y71187D01*
X125875Y72750D02*
X127750D01*
X125250Y101187D02*
X126813Y104937D01*
X128375Y101187D01*
X125875Y102750D02*
X127750D01*
X125250Y121187D02*
X126813Y124937D01*
X128375Y121187D01*
X125875Y122750D02*
X127750D01*
X125250Y151187D02*
X126813Y154937D01*
X128375Y151187D01*
X125875Y152750D02*
X127750D01*
X125250Y171187D02*
X126813Y174937D01*
X128375Y171187D01*
X125875Y172750D02*
X127750D01*
X128375Y186813D02*
X128063Y186500D01*
X127437Y186187D01*
X126500D01*
X125875Y186500D01*
X125563Y186813D01*
X125250Y187437D01*
Y188687D01*
X125563Y189313D01*
X125875Y189625D01*
X126500Y189937D01*
X127437D01*
X128063Y189625D01*
X128375Y189313D01*
X125250Y201187D02*
X126813Y204937D01*
X128375Y201187D01*
X125875Y202750D02*
X127750D01*
X125250Y221187D02*
X126813Y224937D01*
X128375Y221187D01*
X125875Y222750D02*
X127750D01*
X132437Y90563D02*
X133063Y90250D01*
X133375Y89625D01*
X133063Y89000D01*
X132437Y88687D01*
X130250D01*
Y92437D01*
X132437D01*
X133063Y92125D01*
X133375Y91500D01*
X133063Y90875D01*
X132437Y90563D01*
X130250D01*
X133375Y129313D02*
X133063Y129000D01*
X132437Y128687D01*
X131500D01*
X130875Y129000D01*
X130563Y129313D01*
X130250Y129937D01*
Y131187D01*
X130563Y131813D01*
X130875Y132125D01*
X131500Y132437D01*
X132437D01*
X133063Y132125D01*
X133375Y131813D01*
X137437Y28063D02*
X138063Y27750D01*
X138375Y27125D01*
X138063Y26500D01*
X137437Y26187D01*
X135250D01*
Y29937D01*
X137437D01*
X138063Y29625D01*
X138375Y29000D01*
X138063Y28375D01*
X137437Y28063D01*
X135250D01*
X137437Y53063D02*
X138063Y52750D01*
X138375Y52125D01*
X138063Y51500D01*
X137437Y51187D01*
X135250D01*
Y54937D01*
X137437D01*
X138063Y54625D01*
X138375Y54000D01*
X138063Y53375D01*
X137437Y53063D01*
X135250D01*
Y71187D02*
X136813Y74937D01*
X138375Y71187D01*
X135875Y72750D02*
X137750D01*
X135250Y101187D02*
X136813Y104937D01*
X138375Y101187D01*
X135875Y102750D02*
X137750D01*
X135250Y121187D02*
X136813Y124937D01*
X138375Y121187D01*
X135875Y122750D02*
X137750D01*
X135250Y151187D02*
X136813Y154937D01*
X138375Y151187D01*
X135875Y152750D02*
X137750D01*
X135250Y171187D02*
X136813Y174937D01*
X138375Y171187D01*
X135875Y172750D02*
X137750D01*
X135250Y201187D02*
X136813Y204937D01*
X138375Y201187D01*
X135875Y202750D02*
X137750D01*
X138375Y211813D02*
X138063Y211500D01*
X137437Y211187D01*
X136500D01*
X135875Y211500D01*
X135563Y211813D01*
X135250Y212437D01*
Y213687D01*
X135563Y214313D01*
X135875Y214625D01*
X136500Y214937D01*
X137437D01*
X138063Y214625D01*
X138375Y214313D01*
X135250Y221187D02*
X136813Y224937D01*
X138375Y221187D01*
X135875Y222750D02*
X137750D01*
X143375Y181813D02*
X143063Y181500D01*
X142437Y181187D01*
X141500D01*
X140875Y181500D01*
X140563Y181813D01*
X140250Y182437D01*
Y183687D01*
X140563Y184313D01*
X140875Y184625D01*
X141500Y184937D01*
X142437D01*
X143063Y184625D01*
X143375Y184313D01*
X145250Y21187D02*
X146813Y24937D01*
X148375Y21187D01*
X145875Y22750D02*
X147750D01*
X145250Y31187D02*
X146813Y34937D01*
X148375Y31187D01*
X145875Y32750D02*
X147750D01*
X145250Y41187D02*
X146813Y44937D01*
X148375Y41187D01*
X145875Y42750D02*
X147750D01*
X145250Y51187D02*
X146813Y54937D01*
X148375Y51187D01*
X145875Y52750D02*
X147750D01*
X145250Y71187D02*
X146813Y74937D01*
X148375Y71187D01*
X145875Y72750D02*
X147750D01*
X145250Y101187D02*
X146813Y104937D01*
X148375Y101187D01*
X145875Y102750D02*
X147750D01*
X148375Y114313D02*
X148063Y114000D01*
X147437Y113687D01*
X146500D01*
X145875Y114000D01*
X145563Y114313D01*
X145250Y114937D01*
Y116187D01*
X145563Y116813D01*
X145875Y117125D01*
X146500Y117437D01*
X147437D01*
X148063Y117125D01*
X148375Y116813D01*
X145250Y121187D02*
X146813Y124937D01*
X148375Y121187D01*
X145875Y122750D02*
X147750D01*
X145250Y151187D02*
X146813Y154937D01*
X148375Y151187D01*
X145875Y152750D02*
X147750D01*
X145250Y171187D02*
X146813Y174937D01*
X148375Y171187D01*
X145875Y172750D02*
X147750D01*
X145250Y201187D02*
X146813Y204937D01*
X148375Y201187D01*
X145875Y202750D02*
X147750D01*
X145250Y221187D02*
X146813Y224937D01*
X148375Y221187D01*
X145875Y222750D02*
X147750D01*
X153375Y191813D02*
X153063Y191500D01*
X152437Y191187D01*
X151500D01*
X150875Y191500D01*
X150563Y191813D01*
X150250Y192437D01*
Y193687D01*
X150563Y194313D01*
X150875Y194625D01*
X151500Y194937D01*
X152437D01*
X153063Y194625D01*
X153375Y194313D01*
X155250Y71187D02*
X156813Y74937D01*
X158375Y71187D01*
X155875Y72750D02*
X157750D01*
X155250Y101187D02*
X156813Y104937D01*
X158375Y101187D01*
X155875Y102750D02*
X157750D01*
X155250Y121187D02*
X156813Y124937D01*
X158375Y121187D01*
X155875Y122750D02*
X157750D01*
X158375Y129313D02*
X158063Y129000D01*
X157437Y128687D01*
X156500D01*
X155875Y129000D01*
X155563Y129313D01*
X155250Y129937D01*
Y131187D01*
X155563Y131813D01*
X155875Y132125D01*
X156500Y132437D01*
X157437D01*
X158063Y132125D01*
X158375Y131813D01*
X155250Y151187D02*
X156813Y154937D01*
X158375Y151187D01*
X155875Y152750D02*
X157750D01*
X158375Y159313D02*
X158063Y159000D01*
X157437Y158687D01*
X156500D01*
X155875Y159000D01*
X155563Y159313D01*
X155250Y159937D01*
Y161187D01*
X155563Y161813D01*
X155875Y162125D01*
X156500Y162437D01*
X157437D01*
X158063Y162125D01*
X158375Y161813D01*
X155250Y171187D02*
X156813Y174937D01*
X158375Y171187D01*
X155875Y172750D02*
X157750D01*
X155250Y201187D02*
X156813Y204937D01*
X158375Y201187D01*
X155875Y202750D02*
X157750D01*
X155250Y221187D02*
X156813Y224937D01*
X158375Y221187D01*
X155875Y222750D02*
X157750D01*
X165250Y21187D02*
X166813Y24937D01*
X168375Y21187D01*
X165875Y22750D02*
X167750D01*
X165250Y51187D02*
X166813Y54937D01*
X168375Y51187D01*
X165875Y52750D02*
X167750D01*
X165250Y71187D02*
X166813Y74937D01*
X168375Y71187D01*
X165875Y72750D02*
X167750D01*
X168375Y81813D02*
X168063Y81500D01*
X167437Y81187D01*
X166500D01*
X165875Y81500D01*
X165563Y81813D01*
X165250Y82437D01*
Y83687D01*
X165563Y84313D01*
X165875Y84625D01*
X166500Y84937D01*
X167437D01*
X168063Y84625D01*
X168375Y84313D01*
X165250Y101187D02*
X166813Y104937D01*
X168375Y101187D01*
X165875Y102750D02*
X167750D01*
X165250Y121187D02*
X166813Y124937D01*
X168375Y121187D01*
X165875Y122750D02*
X167750D01*
X165250Y151187D02*
X166813Y154937D01*
X168375Y151187D01*
X165875Y152750D02*
X167750D01*
X168375Y161813D02*
X168063Y161500D01*
X167437Y161187D01*
X166500D01*
X165875Y161500D01*
X165563Y161813D01*
X165250Y162437D01*
Y163687D01*
X165563Y164313D01*
X165875Y164625D01*
X166500Y164937D01*
X167437D01*
X168063Y164625D01*
X168375Y164313D01*
X165250Y171187D02*
X166813Y174937D01*
X168375Y171187D01*
X165875Y172750D02*
X167750D01*
X165250Y201187D02*
X166813Y204937D01*
X168375Y201187D01*
X165875Y202750D02*
X167750D01*
X165250Y221187D02*
X166813Y224937D01*
X168375Y221187D01*
X165875Y222750D02*
X167750D01*
X173375Y36813D02*
X173063Y36500D01*
X172437Y36187D01*
X171500D01*
X170875Y36500D01*
X170563Y36813D01*
X170250Y37437D01*
Y38687D01*
X170563Y39313D01*
X170875Y39625D01*
X171500Y39937D01*
X172437D01*
X173063Y39625D01*
X173375Y39313D01*
X175250Y71187D02*
X176813Y74937D01*
X178375Y71187D01*
X175875Y72750D02*
X177750D01*
X178375Y79313D02*
X178063Y79000D01*
X177437Y78687D01*
X176500D01*
X175875Y79000D01*
X175563Y79313D01*
X175250Y79937D01*
Y81187D01*
X175563Y81813D01*
X175875Y82125D01*
X176500Y82437D01*
X177437D01*
X178063Y82125D01*
X178375Y81813D01*
X175250Y101187D02*
X176813Y104937D01*
X178375Y101187D01*
X175875Y102750D02*
X177750D01*
X175250Y121187D02*
X176813Y124937D01*
X178375Y121187D01*
X175875Y122750D02*
X177750D01*
X178375Y129313D02*
X178063Y129000D01*
X177437Y128687D01*
X176500D01*
X175875Y129000D01*
X175563Y129313D01*
X175250Y129937D01*
Y131187D01*
X175563Y131813D01*
X175875Y132125D01*
X176500Y132437D01*
X177437D01*
X178063Y132125D01*
X178375Y131813D01*
X175250Y151187D02*
X176813Y154937D01*
X178375Y151187D01*
X175875Y152750D02*
X177750D01*
X178375Y164313D02*
X178063Y164000D01*
X177437Y163687D01*
X176500D01*
X175875Y164000D01*
X175563Y164313D01*
X175250Y164937D01*
Y166187D01*
X175563Y166813D01*
X175875Y167125D01*
X176500Y167437D01*
X177437D01*
X178063Y167125D01*
X178375Y166813D01*
X175250Y171187D02*
X176813Y174937D01*
X178375Y171187D01*
X175875Y172750D02*
X177750D01*
X175250Y201187D02*
X176813Y204937D01*
X178375Y201187D01*
X175875Y202750D02*
X177750D01*
X175250Y221187D02*
X176813Y224937D01*
X178375Y221187D01*
X175875Y222750D02*
X177750D01*
X180875Y21813D02*
X180563Y21500D01*
X179937Y21187D01*
X179000D01*
X178375Y21500D01*
X178063Y21813D01*
X177750Y22437D01*
Y23687D01*
X178063Y24313D01*
X178375Y24625D01*
X179000Y24937D01*
X179937D01*
X180563Y24625D01*
X180875Y24313D01*
X182437Y28063D02*
X183063Y27750D01*
X183375Y27125D01*
X183063Y26500D01*
X182437Y26187D01*
X180250D01*
Y29937D01*
X182437D01*
X183063Y29625D01*
X183375Y29000D01*
X183063Y28375D01*
X182437Y28063D01*
X180250D01*
X183375Y56813D02*
X183063Y56500D01*
X182437Y56187D01*
X181500D01*
X180875Y56500D01*
X180563Y56813D01*
X180250Y57437D01*
Y58687D01*
X180563Y59313D01*
X180875Y59625D01*
X181500Y59937D01*
X182437D01*
X183063Y59625D01*
X183375Y59313D01*
X185250Y21187D02*
X186813Y24937D01*
X188375Y21187D01*
X185875Y22750D02*
X187750D01*
X185250Y51187D02*
X186813Y54937D01*
X188375Y51187D01*
X185875Y52750D02*
X187750D01*
X185250Y71187D02*
X186813Y74937D01*
X188375Y71187D01*
X185875Y72750D02*
X187750D01*
X188375Y79313D02*
X188063Y79000D01*
X187437Y78687D01*
X186500D01*
X185875Y79000D01*
X185563Y79313D01*
X185250Y79937D01*
Y81187D01*
X185563Y81813D01*
X185875Y82125D01*
X186500Y82437D01*
X187437D01*
X188063Y82125D01*
X188375Y81813D01*
X185250Y101187D02*
X186813Y104937D01*
X188375Y101187D01*
X185875Y102750D02*
X187750D01*
X185250Y121187D02*
X186813Y124937D01*
X188375Y121187D01*
X185875Y122750D02*
X187750D01*
X188375Y136813D02*
X188063Y136500D01*
X187437Y136187D01*
X186500D01*
X185875Y136500D01*
X185563Y136813D01*
X185250Y137437D01*
Y138687D01*
X185563Y139313D01*
X185875Y139625D01*
X186500Y139937D01*
X187437D01*
X188063Y139625D01*
X188375Y139313D01*
X185250Y151187D02*
X186813Y154937D01*
X188375Y151187D01*
X185875Y152750D02*
X187750D01*
X185250Y171187D02*
X186813Y174937D01*
X188375Y171187D01*
X185875Y172750D02*
X187750D01*
X185250Y201187D02*
X186813Y204937D01*
X188375Y201187D01*
X185875Y202750D02*
X187750D01*
X185250Y221187D02*
X186813Y224937D01*
X188375Y221187D01*
X185875Y222750D02*
X187750D01*
X190875Y159313D02*
X190563Y159000D01*
X189937Y158687D01*
X189000D01*
X188375Y159000D01*
X188063Y159313D01*
X187750Y159937D01*
Y161187D01*
X188063Y161813D01*
X188375Y162125D01*
X189000Y162437D01*
X189937D01*
X190563Y162125D01*
X190875Y161813D01*
D02*
D22*
X15250Y15250D03*
Y25250D03*
Y35250D03*
Y45250D03*
Y55250D03*
Y65250D03*
Y75250D03*
Y85250D03*
Y95250D03*
Y105250D03*
Y115250D03*
Y125250D03*
Y135250D03*
Y145250D03*
Y155250D03*
Y165250D03*
Y175250D03*
Y185250D03*
Y195250D03*
Y205250D03*
Y215250D03*
X47750Y15250D03*
Y35250D03*
Y75250D03*
Y115250D03*
X75250Y15250D03*
Y25250D03*
Y35250D03*
Y45250D03*
Y55250D03*
Y65250D03*
Y75250D03*
Y85250D03*
Y95250D03*
Y105250D03*
Y115250D03*
Y125250D03*
Y135250D03*
Y145250D03*
Y155250D03*
Y165250D03*
Y175250D03*
Y185250D03*
Y195250D03*
Y205250D03*
Y215250D03*
X82750Y30250D03*
Y210250D03*
X85250Y77750D03*
Y195250D03*
X92750Y45250D03*
Y112750D03*
X97750Y165250D03*
Y190250D03*
X105250Y15250D03*
Y25250D03*
Y35250D03*
Y45250D03*
Y65250D03*
Y82750D03*
Y95250D03*
Y115250D03*
Y145250D03*
Y165250D03*
Y195250D03*
Y215250D03*
X115250Y30250D03*
Y50250D03*
Y65250D03*
Y95250D03*
Y115250D03*
Y145250D03*
Y165250D03*
Y180250D03*
Y195250D03*
Y215250D03*
X120250Y82750D03*
Y122750D03*
X125250Y20250D03*
Y45250D03*
Y65250D03*
Y95250D03*
Y115250D03*
Y145250D03*
Y165250D03*
Y195250D03*
Y205250D03*
Y215250D03*
X130250Y175250D03*
X135250Y15250D03*
Y25250D03*
Y35250D03*
Y45250D03*
Y65250D03*
Y95250D03*
Y107750D03*
Y115250D03*
Y145250D03*
Y165250D03*
Y195250D03*
Y215250D03*
X140250Y185250D03*
X145250Y65250D03*
Y95250D03*
Y115250D03*
Y122750D03*
Y145250D03*
Y152750D03*
Y165250D03*
Y195250D03*
Y215250D03*
X155250Y15250D03*
Y45250D03*
Y65250D03*
Y75250D03*
Y95250D03*
Y115250D03*
Y145250D03*
Y155250D03*
Y165250D03*
Y195250D03*
Y215250D03*
X160250Y30250D03*
X165250Y65250D03*
Y72750D03*
Y95250D03*
Y115250D03*
Y122750D03*
Y145250D03*
Y157750D03*
Y165250D03*
Y195250D03*
Y215250D03*
X167750Y15250D03*
X170250Y20250D03*
Y50250D03*
X175250Y15250D03*
Y45250D03*
Y65250D03*
Y72750D03*
Y95250D03*
Y115250D03*
Y130250D03*
Y145250D03*
Y165250D03*
Y195250D03*
Y215250D03*
X177750Y152750D03*
X0Y0D02*
M02*
