G04 DesignSpark PCB Gerber Version 10.0 Build 5299*
G04 #@! TF.Part,Single*
G04 #@! TF.FileFunction,Copper,L1,Top*
G04 #@! TF.FilePolarity,Positive*
%FSLAX35Y35*%
%MOIN*%
G04 #@! TA.AperFunction,WasherPad*
%ADD13R,0.06000X0.06000*%
G04 #@! TD.AperFunction*
%ADD11C,0.01500*%
%ADD10C,0.02000*%
G04 #@! TA.AperFunction,WasherPad*
%ADD15C,0.03200*%
%ADD14C,0.04800*%
%ADD12C,0.06000*%
G04 #@! TD.AperFunction*
X0Y0D02*
D02*
D10*
X15250Y215250D02*
X75250D01*
Y15250D02*
X47750D01*
X75250D02*
X97750D01*
X102750Y20250D01*
X125250D01*
X75250Y105250D02*
X15250D01*
X75250Y115250D02*
X47750D01*
X105250Y15250D02*
X127750D01*
X132750Y20250D01*
X170250D01*
X105250Y82750D02*
X120250D01*
X135250Y45250D02*
X125250D01*
X165250Y215250D02*
X160250Y220250D01*
X80250D01*
X75250Y215250D01*
D02*
D11*
X15250Y25250D02*
X67750D01*
X72750Y20250D01*
X92750D01*
X102750Y30250D01*
X115250D01*
X15250Y45250D02*
X67750D01*
X72750Y50250D01*
X110250D01*
X115250Y55250D01*
X155250D01*
X160250Y60250D01*
Y67750D01*
X165250Y72750D01*
X15250Y85250D02*
X67750D01*
X72750Y90250D01*
X140250D01*
X145250Y95250D01*
X15250Y115250D02*
X20250Y110250D01*
X82750D01*
X85250Y107750D01*
X135250D01*
X15250Y125250D02*
X20250Y130250D01*
X77750D01*
X100250Y152750D01*
X145250D01*
X15250Y155250D02*
X20250Y160250D01*
X130250D01*
X135250Y165250D01*
X15250D02*
X20250Y170250D01*
X120250D01*
X125250Y165250D01*
X15250Y175250D02*
X20250Y180250D01*
X110250D01*
X15250Y185250D02*
X20250Y190250D01*
X97750D01*
X75250Y65250D02*
X77750D01*
X82750Y70250D01*
X155250D01*
X170250Y85250D01*
Y117750D01*
X165250Y122750D01*
X75250Y165250D02*
X97750D01*
X75250Y175250D02*
X130250D01*
X75250Y185250D02*
X140250D01*
X75250Y205250D02*
X125250D01*
X77750Y87750D02*
X145250D01*
X150250Y92750D01*
Y117750D01*
X162750Y130250D01*
X175250D01*
X77750Y87750D02*
X75250Y85250D01*
X82750Y30250D02*
X20250D01*
X15250Y35250D01*
X82750Y210250D02*
X130250D01*
X135250Y215250D01*
X92750Y45250D02*
X75250D01*
X105250Y25250D02*
X125250D01*
X130250Y30250D01*
X160250D01*
X105250Y35250D02*
X110250Y40250D01*
X150250D01*
X155250Y45250D01*
X110250Y180250D02*
X115250D01*
Y50250D02*
X162750D01*
X170250Y57750D01*
X115250Y195250D02*
X110250Y200250D01*
X20250D01*
X15250Y195250D01*
X120250Y122750D02*
X145250D01*
Y195250D02*
X137750Y187750D01*
X105250D01*
X97750Y195250D01*
X85250D01*
X155250Y45250D02*
X165250D01*
X170250Y50250D01*
X155250Y75250D02*
X152750Y72750D01*
X80250D01*
X77750Y70250D01*
X72750D01*
X67750Y65250D01*
X15250D01*
X155250Y145250D02*
Y142750D01*
X140250Y127750D01*
X117750D01*
X112750Y122750D01*
X102750D01*
X92750Y112750D01*
X155250Y155250D02*
X152750Y157750D01*
X137750D01*
X135250Y155250D01*
X90250D01*
X82750Y147750D01*
Y142750D01*
X80250Y140250D01*
X20250D01*
X15250Y135250D01*
X165250Y157750D02*
X162750D01*
X160250Y160250D01*
X135250D01*
X132750Y157750D01*
X87750D01*
X80250Y150250D01*
X20250D01*
X15250Y145250D01*
X165250Y195250D02*
X170250Y190250D01*
Y140250D01*
X180250Y130250D01*
Y127750D01*
X177750Y125250D01*
X170250D01*
X167750Y127750D01*
X165250D01*
X160250Y122750D01*
Y87750D01*
X150250Y77750D01*
X85250D01*
X167750Y15250D02*
X162750Y10250D01*
X20250D01*
X15250Y15250D01*
X170250Y57750D02*
Y67750D01*
X175250Y72750D01*
X177750Y152750D02*
X180250Y155250D01*
Y190250D01*
X175250Y195250D01*
D02*
D12*
X15250Y15250D03*
Y25250D03*
Y35250D03*
Y45250D03*
Y55250D03*
Y65250D03*
Y75250D03*
Y85250D03*
Y95250D03*
Y105250D03*
Y115250D03*
Y125250D03*
Y135250D03*
Y145250D03*
Y155250D03*
Y165250D03*
Y175250D03*
Y185250D03*
Y195250D03*
Y205250D03*
X47750Y35250D03*
Y75250D03*
X75250Y15250D03*
Y25250D03*
Y35250D03*
Y45250D03*
Y55250D03*
Y65250D03*
Y75250D03*
Y85250D03*
Y95250D03*
Y105250D03*
Y115250D03*
Y125250D03*
Y135250D03*
Y145250D03*
Y155250D03*
Y165250D03*
Y175250D03*
Y185250D03*
Y195250D03*
Y205250D03*
Y215250D03*
X105250Y15250D03*
Y25250D03*
Y35250D03*
Y95250D03*
Y145250D03*
Y195250D03*
Y215250D03*
X115250Y65250D03*
Y95250D03*
Y115250D03*
Y145250D03*
Y165250D03*
Y195250D03*
Y215250D03*
X125250Y65250D03*
Y95250D03*
Y115250D03*
Y145250D03*
Y165250D03*
Y195250D03*
Y215250D03*
X135250Y15250D03*
Y25250D03*
Y35250D03*
Y45250D03*
Y65250D03*
Y95250D03*
Y115250D03*
Y145250D03*
Y165250D03*
Y195250D03*
Y215250D03*
X145250Y65250D03*
Y95250D03*
Y115250D03*
Y145250D03*
Y165250D03*
Y195250D03*
Y215250D03*
X155250Y15250D03*
Y45250D03*
Y65250D03*
Y95250D03*
Y115250D03*
Y145250D03*
Y165250D03*
Y195250D03*
Y215250D03*
X165250Y65250D03*
Y95250D03*
Y115250D03*
Y145250D03*
Y165250D03*
Y195250D03*
Y215250D03*
X175250Y15250D03*
Y45250D03*
Y65250D03*
Y95250D03*
Y115250D03*
Y145250D03*
Y165250D03*
Y195250D03*
Y215250D03*
D02*
D13*
X15250D03*
X105250Y45250D03*
Y65250D03*
Y115250D03*
Y165250D03*
D02*
D14*
X47750Y15250D03*
Y115250D03*
X105250Y82750D03*
X120250D03*
X125250Y20250D03*
Y45250D03*
X170250Y20250D03*
D02*
D15*
X82750Y30250D03*
Y210250D03*
X85250Y77750D03*
Y195250D03*
X92750Y45250D03*
Y112750D03*
X97750Y165250D03*
Y190250D03*
X115250Y30250D03*
Y50250D03*
Y180250D03*
X120250Y122750D03*
X125250Y205250D03*
X130250Y175250D03*
X135250Y107750D03*
X140250Y185250D03*
X145250Y122750D03*
Y152750D03*
X155250Y75250D03*
Y155250D03*
X160250Y30250D03*
X165250Y72750D03*
Y122750D03*
Y157750D03*
X167750Y15250D03*
X170250Y50250D03*
X175250Y72750D03*
Y130250D03*
X177750Y152750D03*
X0Y0D02*
M02*
