G04 DesignSpark PCB Gerber Version 10.0 Build 5299*
G04 #@! TF.Part,Single*
G04 #@! TF.FileFunction,Copper,L2,Bot*
G04 #@! TF.FilePolarity,Positive*
%FSLAX35Y35*%
%MOIN*%
G04 #@! TA.AperFunction,WasherPad*
%ADD13R,0.06000X0.06000*%
G04 #@! TD.AperFunction*
%ADD11C,0.01500*%
%ADD10C,0.02000*%
G04 #@! TA.AperFunction,WasherPad*
%ADD15C,0.03200*%
%ADD14C,0.04800*%
%ADD12C,0.06000*%
G04 #@! TD.AperFunction*
X0Y0D02*
D02*
D10*
X15250Y105250D02*
X10250Y110250D01*
Y200250D01*
X15250Y205250D01*
Y215250D02*
Y205250D01*
X47750Y15250D02*
Y35250D01*
Y75250D02*
Y115250D01*
X105250Y95250D02*
Y82750D01*
X125250Y20250D02*
Y45250D01*
Y57750D01*
X120250Y62750D01*
Y82750D01*
X165250Y215250D02*
X175250D01*
Y45250D02*
Y25250D01*
X170250Y20250D01*
X175250Y65250D02*
Y45250D01*
Y165250D02*
Y187750D01*
X180250Y192750D01*
Y200250D01*
X165250Y215250D01*
D02*
D11*
X15250Y55250D02*
X10250Y60250D01*
Y90250D01*
X20250D01*
X25250Y95250D01*
Y205250D01*
X30250Y210250D01*
X77750D01*
X87750Y220250D01*
X140250D01*
Y212750D01*
X155250Y197750D01*
Y195250D01*
X15250Y75250D02*
X30250Y90250D01*
Y175250D01*
X15250Y105250D02*
Y95250D01*
X75250Y25250D02*
X82750D01*
X97750Y40250D01*
X110250D01*
Y80250D01*
X120250Y90250D01*
Y122750D01*
X75250Y105250D02*
X80250Y110250D01*
Y120250D01*
X75250Y125250D01*
Y135250D02*
Y125250D01*
Y145250D02*
Y135250D01*
Y155250D02*
Y145250D01*
Y195250D02*
X82750Y202750D01*
Y210250D01*
X85250Y77750D02*
Y32750D01*
X82750Y30250D01*
X85250Y195250D02*
X80250Y190250D01*
X45250D01*
X30250Y175250D01*
X92750Y112750D02*
Y45250D01*
X97750Y165250D02*
X92750Y170250D01*
Y202750D01*
X105250Y215250D01*
X97750Y165250D02*
Y52750D01*
X105250Y45250D01*
X97750Y190250D02*
X105250Y182750D01*
Y165250D01*
X115250Y50250D02*
Y30250D01*
Y180250D02*
Y165250D01*
Y215250D02*
X120250Y210250D01*
X125250D01*
X130250Y205250D01*
Y175250D01*
X125250Y195250D02*
Y205250D01*
X130250Y175250D02*
Y40250D01*
X135250Y35250D01*
Y25250D02*
X140250Y30250D01*
Y185250D01*
X135250Y95250D02*
Y107750D01*
Y215250D02*
Y210250D01*
X145250Y200250D01*
X147750D01*
X150250Y197750D01*
Y30250D01*
X135250Y15250D01*
X140250Y185250D02*
Y200250D01*
X125250Y215250D01*
X145250Y122750D02*
Y145250D01*
Y152750D02*
Y165250D01*
Y215250D02*
X160250Y200250D01*
Y30250D01*
X155250Y95250D02*
Y75250D01*
Y160250D02*
Y155250D01*
Y165250D02*
Y160250D01*
X165250Y95250D02*
Y72750D01*
Y145250D02*
Y122750D01*
Y165250D02*
Y157750D01*
X167750Y15250D02*
X172750Y10250D01*
X177750D01*
X180250Y12750D01*
Y150250D01*
X177750Y152750D01*
X170250Y50250D02*
Y200250D01*
X155250Y215250D01*
X175250Y72750D02*
Y95250D01*
Y130250D02*
Y145250D01*
D02*
D12*
X15250Y15250D03*
Y25250D03*
Y35250D03*
Y45250D03*
Y55250D03*
Y65250D03*
Y75250D03*
Y85250D03*
Y95250D03*
Y105250D03*
Y115250D03*
Y125250D03*
Y135250D03*
Y145250D03*
Y155250D03*
Y165250D03*
Y175250D03*
Y185250D03*
Y195250D03*
Y205250D03*
X47750Y35250D03*
Y75250D03*
X75250Y15250D03*
Y25250D03*
Y35250D03*
Y45250D03*
Y55250D03*
Y65250D03*
Y75250D03*
Y85250D03*
Y95250D03*
Y105250D03*
Y115250D03*
Y125250D03*
Y135250D03*
Y145250D03*
Y155250D03*
Y165250D03*
Y175250D03*
Y185250D03*
Y195250D03*
Y205250D03*
Y215250D03*
X105250Y15250D03*
Y25250D03*
Y35250D03*
Y95250D03*
Y145250D03*
Y195250D03*
Y215250D03*
X115250Y65250D03*
Y95250D03*
Y115250D03*
Y145250D03*
Y165250D03*
Y195250D03*
Y215250D03*
X125250Y65250D03*
Y95250D03*
Y115250D03*
Y145250D03*
Y165250D03*
Y195250D03*
Y215250D03*
X135250Y15250D03*
Y25250D03*
Y35250D03*
Y45250D03*
Y65250D03*
Y95250D03*
Y115250D03*
Y145250D03*
Y165250D03*
Y195250D03*
Y215250D03*
X145250Y65250D03*
Y95250D03*
Y115250D03*
Y145250D03*
Y165250D03*
Y195250D03*
Y215250D03*
X155250Y15250D03*
Y45250D03*
Y65250D03*
Y95250D03*
Y115250D03*
Y145250D03*
Y165250D03*
Y195250D03*
Y215250D03*
X165250Y65250D03*
Y95250D03*
Y115250D03*
Y145250D03*
Y165250D03*
Y195250D03*
Y215250D03*
X175250Y15250D03*
Y45250D03*
Y65250D03*
Y95250D03*
Y115250D03*
Y145250D03*
Y165250D03*
Y195250D03*
Y215250D03*
D02*
D13*
X15250D03*
X105250Y45250D03*
Y65250D03*
Y115250D03*
Y165250D03*
D02*
D14*
X47750Y15250D03*
Y115250D03*
X105250Y82750D03*
X120250D03*
X125250Y20250D03*
Y45250D03*
X170250Y20250D03*
D02*
D15*
X82750Y30250D03*
Y210250D03*
X85250Y77750D03*
Y195250D03*
X92750Y45250D03*
Y112750D03*
X97750Y165250D03*
Y190250D03*
X115250Y30250D03*
Y50250D03*
Y180250D03*
X120250Y122750D03*
X125250Y205250D03*
X130250Y175250D03*
X135250Y107750D03*
X140250Y185250D03*
X145250Y122750D03*
Y152750D03*
X155250Y75250D03*
Y155250D03*
X160250Y30250D03*
X165250Y72750D03*
Y122750D03*
Y157750D03*
X167750Y15250D03*
X170250Y50250D03*
X175250Y72750D03*
Y130250D03*
X177750Y152750D03*
X0Y0D02*
M02*
