G04 DesignSpark PCB Gerber Version 10.0 Build 5299*
G04 #@! TF.Part,Single*
G04 #@! TF.FileFunction,Soldermask,Bot*
G04 #@! TF.FilePolarity,Negative*
%FSLAX35Y35*%
%MOIN*%
G04 #@! TA.AperFunction,WasherPad*
%ADD18R,0.07000X0.07000*%
%ADD70C,0.04200*%
%ADD19C,0.05800*%
%ADD17C,0.07000*%
G04 #@! TD.AperFunction*
X0Y0D02*
D02*
D17*
X15250Y15250D03*
Y25250D03*
Y35250D03*
Y45250D03*
Y55250D03*
Y65250D03*
Y75250D03*
Y85250D03*
Y95250D03*
Y105250D03*
Y115250D03*
Y125250D03*
Y135250D03*
Y145250D03*
Y155250D03*
Y165250D03*
Y175250D03*
Y185250D03*
Y195250D03*
Y205250D03*
X47750Y35250D03*
Y75250D03*
X75250Y15250D03*
Y25250D03*
Y35250D03*
Y45250D03*
Y55250D03*
Y65250D03*
Y75250D03*
Y85250D03*
Y95250D03*
Y105250D03*
Y115250D03*
Y125250D03*
Y135250D03*
Y145250D03*
Y155250D03*
Y165250D03*
Y175250D03*
Y185250D03*
Y195250D03*
Y205250D03*
Y215250D03*
X105250Y15250D03*
Y25250D03*
Y35250D03*
Y95250D03*
Y145250D03*
Y195250D03*
Y215250D03*
X115250Y65250D03*
Y95250D03*
Y115250D03*
Y145250D03*
Y165250D03*
Y195250D03*
Y215250D03*
X125250Y65250D03*
Y95250D03*
Y115250D03*
Y145250D03*
Y165250D03*
Y195250D03*
Y215250D03*
X135250Y15250D03*
Y25250D03*
Y35250D03*
Y45250D03*
Y65250D03*
Y95250D03*
Y115250D03*
Y145250D03*
Y165250D03*
Y195250D03*
Y215250D03*
X145250Y65250D03*
Y95250D03*
Y115250D03*
Y145250D03*
Y165250D03*
Y195250D03*
Y215250D03*
X155250Y15250D03*
Y45250D03*
Y65250D03*
Y95250D03*
Y115250D03*
Y145250D03*
Y165250D03*
Y195250D03*
Y215250D03*
X165250Y65250D03*
Y95250D03*
Y115250D03*
Y145250D03*
Y165250D03*
Y195250D03*
Y215250D03*
X175250Y15250D03*
Y45250D03*
Y65250D03*
Y95250D03*
Y115250D03*
Y145250D03*
Y165250D03*
Y195250D03*
Y215250D03*
D02*
D18*
X15250D03*
X105250Y45250D03*
Y65250D03*
Y115250D03*
Y165250D03*
D02*
D19*
X47750Y15250D03*
Y115250D03*
X105250Y82750D03*
X120250D03*
X125250Y20250D03*
Y45250D03*
X170250Y20250D03*
D02*
D70*
X82750Y30250D03*
Y210250D03*
X85250Y77750D03*
Y195250D03*
X92750Y45250D03*
Y112750D03*
X97750Y165250D03*
Y190250D03*
X115250Y30250D03*
Y50250D03*
Y180250D03*
X120250Y122750D03*
X125250Y205250D03*
X130250Y175250D03*
X135250Y107750D03*
X140250Y185250D03*
X145250Y122750D03*
Y152750D03*
X155250Y75250D03*
Y155250D03*
X160250Y30250D03*
X165250Y72750D03*
Y122750D03*
Y157750D03*
X167750Y15250D03*
X170250Y50250D03*
X175250Y72750D03*
Y130250D03*
X177750Y152750D03*
X0Y0D02*
M02*
