G05
M48
;#@! TF.GenerationSoftware,DesignSpark,DesignSpark PCB,10.0.5344
;#@! TF.CreationDate,2022-10-05T10:11:40+00:00*
;#@! TF.FileFunction,Plated,1,2,PTH
;FILE_FORMAT=3:5
;TYPE=PLATED
INCH,TZ
FMAT,2
T1C000.01600
T2C000.02400
T3C000.03500
%
T001
X82750Y30250
X82750Y210250
X85250Y77750
X85250Y195250
X92750Y45250
X92750Y112750
X97750Y165250
X97750Y190250
X115250Y30250
X115250Y50250
X115250Y180250
X120250Y122750
X125250Y205250
X130250Y175250
X135250Y107750
X140250Y185250
X145250Y122750
X145250Y152750
X155250Y75250
X155250Y155250
X160250Y30250
X165250Y72750
X165250Y122750
X165250Y157750
X167750Y15250
X170250Y50250
X175250Y72750
X175250Y130250
X177750Y152750
T002
X47750Y15250
X47750Y115250
X105250Y82750
X120250Y82750
X125250Y20250
X125250Y45250
X170250Y20250
T003
X15250Y15250
X15250Y25250
X15250Y35250
X15250Y45250
X15250Y55250
X15250Y65250
X15250Y75250
X15250Y85250
X15250Y95250
X15250Y105250
X15250Y115250
X15250Y125250
X15250Y135250
X15250Y145250
X15250Y155250
X15250Y165250
X15250Y175250
X15250Y185250
X15250Y195250
X15250Y205250
X15250Y215250
X47750Y35250
X47750Y75250
X75250Y15250
X75250Y25250
X75250Y35250
X75250Y45250
X75250Y55250
X75250Y65250
X75250Y75250
X75250Y85250
X75250Y95250
X75250Y105250
X75250Y115250
X75250Y125250
X75250Y135250
X75250Y145250
X75250Y155250
X75250Y165250
X75250Y175250
X75250Y185250
X75250Y195250
X75250Y205250
X75250Y215250
X105250Y15250
X105250Y25250
X105250Y35250
X105250Y45250
X105250Y65250
X105250Y95250
X105250Y115250
X105250Y145250
X105250Y165250
X105250Y195250
X105250Y215250
X115250Y65250
X115250Y95250
X115250Y115250
X115250Y145250
X115250Y165250
X115250Y195250
X115250Y215250
X125250Y65250
X125250Y95250
X125250Y115250
X125250Y145250
X125250Y165250
X125250Y195250
X125250Y215250
X135250Y15250
X135250Y25250
X135250Y35250
X135250Y45250
X135250Y65250
X135250Y95250
X135250Y115250
X135250Y145250
X135250Y165250
X135250Y195250
X135250Y215250
X145250Y65250
X145250Y95250
X145250Y115250
X145250Y145250
X145250Y165250
X145250Y195250
X145250Y215250
X155250Y15250
X155250Y45250
X155250Y65250
X155250Y95250
X155250Y115250
X155250Y145250
X155250Y165250
X155250Y195250
X155250Y215250
X165250Y65250
X165250Y95250
X165250Y115250
X165250Y145250
X165250Y165250
X165250Y195250
X165250Y215250
X175250Y15250
X175250Y45250
X175250Y65250
X175250Y95250
X175250Y115250
X175250Y145250
X175250Y165250
X175250Y195250
X175250Y215250
M30
